<svg xmlns="http://www.w3.org/2000/svg" width="1022" height="858" viewBox="0 0 1022 858" shape-rendering="geometricPrecision">
<defs><style><![CDATA[path{vector-effect:non-scaling-stroke}]]></style></defs>
<g fill="#52a456" stroke="none" fill-rule="evenodd">
<path d="M 509 755 L 503 755 L 502 754 L 501 754 L 500 755 L 495 755 L 494 756 L 492 756 L 491 757 L 489 757 L 488 758 L 485 759 L 482 762 L 481 762 L 475 769 L 475 770 L 473 773 L 472 778 L 471 779 L 471 783 L 470 784 L 470 790 L 471 791 L 471 796 L 472 797 L 472 799 L 473 800 L 475 805 L 483 813 L 484 813 L 486 815 L 488 815 L 489 816 L 490 816 L 491 817 L 493 817 L 494 818 L 508 818 L 509 817 L 511 817 L 512 816 L 514 816 L 515 815 L 518 814 L 520 812 L 521 812 L 528 805 L 528 804 L 532 797 L 532 794 L 533 793 L 533 781 L 532 780 L 532 776 L 531 775 L 528 768 L 520 760 L 519 760 L 515 757 L 513 757 L 512 756 L 510 756 Z"/>
<path d="M 241 661 L 241 662 L 240 663 L 237 662 L 236 663 L 235 663 L 233 665 L 230 666 L 225 671 L 225 672 L 223 674 L 223 675 L 221 678 L 221 680 L 220 681 L 220 684 L 219 685 L 219 696 L 220 697 L 220 700 L 222 703 L 222 705 L 224 707 L 225 710 L 229 714 L 230 714 L 232 716 L 233 716 L 238 719 L 241 719 L 242 720 L 252 720 L 253 719 L 256 719 L 257 718 L 262 716 L 264 714 L 265 714 L 272 706 L 272 704 L 274 702 L 274 700 L 275 699 L 275 697 L 274 696 L 274 695 L 276 693 L 276 686 L 275 685 L 275 681 L 274 680 L 274 678 L 273 677 L 273 676 L 270 673 L 270 671 L 266 667 L 265 667 L 258 663 L 255 663 L 254 662 L 251 662 L 250 661 L 247 661 L 246 662 L 243 662 L 242 661 Z"/>
<path d="M 265 670 L 266 669 L 267 669 L 268 670 L 267 671 L 266 671 Z"/>
<path d="M 748 660 L 747 661 L 744 661 L 743 662 L 741 662 L 740 663 L 737 664 L 735 666 L 734 666 L 729 671 L 729 672 L 727 674 L 727 675 L 725 678 L 725 680 L 724 681 L 724 684 L 723 685 L 723 696 L 724 697 L 724 700 L 725 701 L 728 708 L 736 716 L 737 716 L 742 719 L 745 719 L 746 720 L 759 720 L 760 719 L 762 719 L 763 718 L 765 718 L 766 717 L 769 716 L 773 712 L 774 712 L 775 711 L 775 710 L 779 705 L 779 704 L 780 703 L 780 701 L 781 700 L 781 696 L 782 695 L 782 685 L 781 684 L 781 681 L 780 680 L 780 678 L 779 677 L 778 674 L 776 672 L 776 671 L 771 666 L 770 666 L 768 664 L 767 664 L 764 662 L 762 662 L 761 661 L 756 661 L 755 660 Z"/>
<path d="M 246 623 L 246 624 L 247 624 L 247 623 Z"/>
<path d="M 353 575 L 349 584 L 355 583 L 354 586 L 359 587 L 358 593 L 395 662 L 391 665 L 363 670 L 304 675 L 298 681 L 299 687 L 304 690 L 331 689 L 405 678 L 449 732 L 468 751 L 476 751 L 479 746 L 478 741 L 447 708 L 422 674 L 484 652 L 464 644 L 412 660 L 386 621 L 376 599 L 432 615 L 415 596 L 367 579 L 361 580 L 360 577 L 357 577 L 357 581 L 354 582 Z"/>
<path d="M 364 582 L 365 581 L 366 582 L 365 583 Z"/>
<path d="M 350 582 L 351 581 L 352 581 L 353 582 L 352 583 L 351 583 Z"/>
<path d="M 358 571 L 358 572 L 359 572 L 359 571 Z"/>
<path d="M 354 567 L 355 568 L 355 567 Z"/>
<path d="M 358 562 L 358 563 L 357 564 L 356 564 L 356 565 L 359 565 L 360 566 L 360 565 L 359 564 L 359 563 Z"/>
<path d="M 584 574 L 554 559 L 541 554 L 539 552 L 535 551 L 522 544 L 467 579 L 464 580 L 461 583 L 451 588 L 445 592 L 444 594 L 460 609 L 480 625 L 496 636 L 504 640 L 520 630 L 546 610 L 584 576 Z"/>
<path d="M 369 520 L 369 522 L 370 523 L 370 524 L 373 527 L 373 528 L 377 532 L 377 533 L 381 537 L 381 538 L 386 543 L 386 544 L 399 557 L 399 558 L 407 566 L 408 566 L 413 571 L 413 568 L 411 565 L 411 563 L 410 562 L 410 560 L 408 557 L 408 555 L 407 554 L 407 552 L 406 551 L 406 549 L 405 548 L 405 546 L 404 545 L 404 543 L 403 542 L 403 540 L 402 539 L 402 537 L 400 534 L 400 532 L 399 531 L 399 528 L 397 525 L 397 523 L 396 522 L 396 520 L 395 519 L 395 517 L 394 516 L 387 516 L 386 515 L 384 515 L 383 514 L 379 514 L 377 516 L 375 516 L 373 519 L 371 519 L 370 520 Z"/>
<path d="M 405 512 L 405 516 L 406 517 L 408 525 L 410 528 L 411 533 L 413 536 L 414 541 L 416 544 L 416 546 L 433 582 L 437 587 L 439 587 L 444 583 L 447 582 L 450 579 L 458 575 L 469 567 L 472 566 L 480 560 L 483 559 L 488 555 L 491 554 L 499 548 L 504 546 L 511 541 L 511 540 L 509 540 L 506 538 L 504 538 L 503 537 L 480 530 L 477 528 L 448 519 L 445 517 L 431 513 L 428 511 L 426 511 L 413 506 Z"/>
<path d="M 620 508 L 615 505 L 610 500 L 609 498 L 606 498 L 604 500 L 585 509 L 583 511 L 568 518 L 566 520 L 560 523 L 558 523 L 556 525 L 536 535 L 534 537 L 531 538 L 530 540 L 534 541 L 566 557 L 568 557 L 593 570 L 596 570 L 601 563 L 601 561 L 607 549 L 608 544 L 610 541 L 610 539 L 611 538 L 611 536 L 612 535 L 612 533 L 615 526 L 615 523 L 616 522 L 616 520 L 617 519 L 617 517 L 618 516 Z"/>
<path d="M 344 488 L 344 489 L 345 490 L 345 491 L 347 493 L 347 494 L 349 496 L 349 497 L 352 500 L 352 501 L 356 505 L 356 506 L 361 511 L 361 512 L 362 512 L 363 513 L 363 514 L 364 514 L 366 512 L 367 512 L 368 511 L 369 511 L 371 509 L 372 509 L 373 508 L 373 506 L 371 504 L 371 503 L 369 501 L 369 498 L 368 497 L 366 497 L 365 496 L 363 496 L 362 495 L 361 495 L 360 494 L 359 494 L 358 493 L 356 493 L 355 492 L 354 492 L 353 491 L 351 491 L 350 490 L 349 490 L 348 489 L 345 489 Z"/>
<path d="M 669 472 L 667 474 L 666 474 L 665 475 L 664 475 L 663 476 L 662 476 L 661 477 L 656 479 L 654 481 L 654 489 L 653 490 L 653 494 L 652 495 L 652 497 L 650 499 L 650 500 L 644 506 L 643 506 L 641 508 L 640 508 L 639 509 L 636 509 L 635 510 L 627 510 L 626 511 L 626 514 L 625 515 L 625 518 L 624 519 L 624 524 L 623 525 L 623 527 L 622 528 L 622 531 L 621 532 L 621 534 L 620 535 L 620 538 L 619 539 L 619 540 L 620 540 L 621 539 L 621 538 L 631 527 L 631 526 L 635 522 L 635 521 L 638 518 L 638 517 L 642 513 L 642 512 L 644 510 L 644 509 L 646 507 L 646 506 L 650 502 L 650 501 L 654 497 L 654 496 L 660 489 L 660 488 L 662 486 L 663 483 L 665 481 L 665 480 L 667 478 L 668 475 L 670 473 Z"/>
<path d="M 635 460 L 637 462 L 638 462 L 639 463 L 641 463 L 644 466 L 645 466 L 648 469 L 648 470 L 651 473 L 651 474 L 653 474 L 656 471 L 657 471 L 658 470 L 659 470 L 661 468 L 662 468 L 663 467 L 664 467 L 666 465 L 667 465 L 675 457 L 675 456 L 678 453 L 678 452 L 679 451 L 679 450 L 680 449 L 680 448 L 672 448 L 671 447 L 663 447 L 662 446 L 651 446 L 650 445 L 641 445 L 640 444 L 638 444 L 637 445 L 637 447 L 636 448 L 636 456 L 635 457 Z"/>
<path d="M 629 444 L 524 435 L 422 484 L 416 488 L 415 498 L 520 535 L 605 491 L 606 479 L 611 469 L 618 463 L 628 459 Z"/>
<path d="M 321 431 L 320 432 L 319 432 L 319 434 L 319 433 L 320 432 L 321 432 Z"/>
<path d="M 856 413 L 855 414 L 852 414 L 851 415 L 849 415 L 848 416 L 845 417 L 843 419 L 842 419 L 837 424 L 837 425 L 835 427 L 835 428 L 833 431 L 833 433 L 832 434 L 832 437 L 831 438 L 831 449 L 832 450 L 832 453 L 834 456 L 834 458 L 836 460 L 836 461 L 844 469 L 845 469 L 850 472 L 852 472 L 853 473 L 858 473 L 859 474 L 864 474 L 865 473 L 869 473 L 872 471 L 874 471 L 876 469 L 877 469 L 879 467 L 880 467 L 885 462 L 885 461 L 887 459 L 887 457 L 888 456 L 888 455 L 889 454 L 889 452 L 890 451 L 890 436 L 889 435 L 889 433 L 888 432 L 886 427 L 884 425 L 884 424 L 878 418 L 875 417 L 873 415 L 871 415 L 870 414 L 867 414 L 866 413 Z"/>
<path d="M 362 410 L 362 412 L 360 413 L 360 416 L 362 418 L 362 422 L 361 423 L 360 423 L 359 422 L 359 420 L 358 420 L 359 422 L 357 424 L 355 424 L 354 425 L 351 425 L 349 424 L 345 427 L 343 426 L 339 426 L 337 429 L 335 428 L 330 428 L 329 429 L 326 428 L 326 431 L 325 432 L 325 436 L 326 437 L 323 439 L 321 438 L 320 436 L 320 440 L 321 442 L 326 446 L 325 448 L 323 447 L 323 448 L 325 450 L 325 453 L 328 458 L 328 460 L 330 462 L 331 465 L 334 468 L 335 473 L 347 479 L 349 481 L 356 483 L 358 485 L 362 487 L 364 487 L 367 489 L 368 488 L 368 484 L 369 483 L 369 481 L 372 475 L 381 467 L 381 459 L 379 455 L 379 453 L 380 452 L 380 450 L 379 449 L 379 441 L 377 440 L 377 437 L 375 436 L 376 434 L 378 434 L 378 430 L 376 429 L 376 421 L 377 420 L 377 417 L 376 416 L 373 416 L 369 414 L 367 414 L 366 416 L 363 414 L 364 411 Z"/>
<path d="M 325 451 L 326 450 L 327 451 L 326 452 Z"/>
<path d="M 374 422 L 375 421 L 376 422 L 376 423 L 375 424 L 374 423 Z"/>
<path d="M 369 420 L 370 419 L 372 419 L 373 420 L 373 421 L 372 422 L 370 422 L 369 421 Z"/>
<path d="M 363 420 L 364 419 L 365 419 L 366 420 L 366 421 L 365 422 L 364 422 L 363 421 Z"/>
<path d="M 371 418 L 372 417 L 373 418 L 372 419 Z"/>
<path d="M 367 416 L 368 415 L 369 416 L 368 417 Z"/>
<path d="M 385 417 L 386 418 L 385 419 L 385 423 L 387 425 L 386 435 L 387 436 L 387 443 L 388 444 L 388 451 L 389 452 L 390 464 L 391 465 L 395 465 L 396 464 L 398 466 L 404 468 L 411 474 L 414 479 L 416 479 L 424 474 L 426 474 L 437 468 L 439 468 L 441 466 L 443 466 L 462 456 L 464 456 L 512 432 L 512 431 L 507 431 L 497 428 L 492 428 L 487 426 L 478 425 L 477 424 L 469 423 L 460 420 L 456 420 L 447 417 L 443 417 L 434 414 L 429 414 L 428 413 L 426 414 L 424 412 L 422 413 L 415 410 L 409 410 L 407 408 L 404 408 L 403 409 L 402 407 L 397 407 L 390 414 Z"/>
<path d="M 388 418 L 390 420 L 389 421 L 389 422 L 388 423 L 387 423 L 386 422 L 387 421 L 386 420 Z"/>
<path d="M 391 413 L 392 412 L 394 412 L 395 413 L 394 414 L 392 414 Z"/>
<path d="M 400 409 L 401 408 L 402 409 L 401 410 Z"/>
<path d="M 406 399 L 406 400 L 407 400 L 407 399 Z"/>
<path d="M 354 396 L 354 397 L 355 397 L 355 396 Z"/>
<path d="M 406 381 L 405 381 L 405 382 L 404 383 L 403 383 L 403 384 L 402 385 L 402 386 L 403 386 L 404 387 L 404 396 L 403 397 L 402 397 L 402 398 L 403 399 L 404 398 L 403 397 L 405 395 L 406 395 L 406 394 L 407 393 L 408 393 L 408 392 L 407 391 L 407 386 L 406 385 Z"/>
<path d="M 642 386 L 641 387 L 641 395 L 640 396 L 640 413 L 639 414 L 639 427 L 638 428 L 638 436 L 639 437 L 647 437 L 648 438 L 657 438 L 658 439 L 667 439 L 668 440 L 675 440 L 676 441 L 683 441 L 686 436 L 686 434 L 687 433 L 687 431 L 688 430 L 688 427 L 689 426 L 689 423 L 690 422 L 690 418 L 691 417 L 691 412 L 692 411 L 692 395 L 691 394 L 689 394 L 684 391 L 682 391 L 679 389 L 674 388 L 671 386 L 669 386 L 666 384 L 664 384 L 663 383 L 662 383 L 659 381 L 657 381 L 656 380 L 655 380 L 652 383 L 651 383 L 648 385 L 646 385 L 645 386 Z"/>
<path d="M 633 386 L 630 384 L 628 384 L 622 379 L 620 379 L 616 381 L 614 383 L 605 387 L 603 389 L 595 393 L 590 397 L 578 403 L 576 405 L 566 410 L 564 412 L 557 415 L 555 417 L 550 419 L 548 421 L 541 424 L 539 426 L 536 427 L 536 428 L 542 428 L 543 429 L 556 429 L 557 430 L 567 430 L 568 431 L 579 431 L 580 432 L 590 432 L 591 433 L 603 433 L 604 434 L 613 434 L 614 435 L 623 435 L 624 436 L 629 436 L 630 435 L 630 428 L 631 427 L 631 412 L 632 411 L 632 400 L 633 399 Z"/>
<path d="M 363 371 L 362 371 L 361 372 L 361 373 Z"/>
<path d="M 664 357 L 663 358 L 663 366 L 662 367 L 662 370 L 661 371 L 661 372 L 660 373 L 662 375 L 664 375 L 665 376 L 666 376 L 667 377 L 668 377 L 669 378 L 671 378 L 672 379 L 674 379 L 675 380 L 676 380 L 677 381 L 679 381 L 680 382 L 681 382 L 682 383 L 683 383 L 684 384 L 685 384 L 686 385 L 687 385 L 688 386 L 690 386 L 691 387 L 692 387 L 693 386 L 693 384 L 692 383 L 692 374 L 691 373 L 691 368 L 690 367 L 690 364 L 689 363 L 689 360 L 688 359 L 688 358 L 687 357 L 687 355 L 686 354 L 686 352 L 685 351 L 684 351 L 683 352 L 680 352 L 679 353 L 677 353 L 676 354 L 674 354 L 673 355 L 672 355 L 671 356 L 669 356 L 668 357 Z"/>
<path d="M 616 353 L 552 299 L 529 316 L 502 348 L 484 328 L 480 328 L 480 324 L 477 321 L 475 322 L 477 324 L 473 326 L 469 332 L 462 330 L 460 333 L 461 332 L 462 334 L 458 335 L 459 342 L 457 344 L 451 341 L 449 342 L 452 343 L 453 346 L 450 348 L 445 347 L 447 352 L 443 352 L 440 357 L 441 360 L 437 360 L 436 362 L 437 366 L 430 369 L 431 372 L 427 377 L 429 381 L 426 382 L 424 380 L 426 382 L 424 384 L 421 382 L 413 384 L 413 390 L 410 393 L 415 396 L 413 400 L 417 402 L 428 403 L 434 406 L 508 423 L 525 425 L 616 373 Z"/>
<path d="M 414 387 L 416 385 L 418 387 L 417 388 L 415 388 Z"/>
<path d="M 610 294 L 610 296 L 612 298 L 614 303 L 616 305 L 616 306 L 617 307 L 619 312 L 621 314 L 621 316 L 623 318 L 623 319 L 624 320 L 624 321 L 625 322 L 625 323 L 626 324 L 631 335 L 633 337 L 634 337 L 635 336 L 642 336 L 643 337 L 646 337 L 647 338 L 652 340 L 659 347 L 659 348 L 662 351 L 663 351 L 664 350 L 666 350 L 669 348 L 671 348 L 674 346 L 676 346 L 679 344 L 681 344 L 681 341 L 680 340 L 680 339 L 678 337 L 678 336 L 676 334 L 676 333 L 673 330 L 673 329 L 668 324 L 668 323 L 667 322 L 666 322 L 660 316 L 659 316 L 656 313 L 655 313 L 653 311 L 652 311 L 649 308 L 644 306 L 642 304 L 640 304 L 638 302 L 636 302 L 631 299 L 626 298 L 623 296 L 619 296 L 618 295 L 614 295 L 613 294 Z"/>
<path d="M 567 297 L 567 298 L 581 312 L 582 312 L 601 331 L 602 331 L 610 339 L 611 339 L 618 346 L 620 346 L 624 342 L 624 338 L 622 336 L 622 335 L 621 334 L 621 333 L 620 332 L 620 331 L 619 330 L 619 329 L 618 328 L 618 327 L 617 326 L 617 325 L 616 324 L 616 323 L 615 322 L 615 321 L 614 320 L 614 319 L 613 318 L 612 315 L 610 313 L 610 312 L 609 311 L 609 310 L 608 309 L 608 308 L 607 307 L 606 304 L 604 302 L 603 299 L 601 297 L 601 296 L 598 293 L 587 293 L 586 294 L 578 294 L 577 295 L 572 295 L 571 296 L 568 296 Z"/>
<path d="M 560 277 L 561 277 L 563 279 L 563 281 L 567 281 L 567 280 L 564 280 L 563 279 L 563 278 L 562 277 L 562 276 L 561 276 Z"/>
<path d="M 567 274 L 566 274 L 566 276 L 567 275 Z"/>
<path d="M 556 267 L 557 268 L 558 268 L 559 269 L 559 270 L 560 270 L 561 271 L 561 272 L 563 272 L 563 271 L 562 271 L 561 270 L 560 270 L 558 268 L 557 268 Z"/>
<path d="M 752 239 L 744 246 L 737 338 L 693 323 L 708 344 L 732 357 L 700 460 L 642 574 L 590 595 L 574 614 L 628 598 L 595 660 L 540 644 L 521 651 L 584 674 L 528 740 L 532 752 L 561 728 L 601 678 L 704 687 L 701 675 L 612 661 L 654 586 L 734 547 L 745 645 L 758 645 L 748 538 L 826 471 L 816 465 L 744 519 L 723 442 L 744 366 L 814 420 L 825 415 L 794 380 L 749 347 L 758 257 Z"/>
<path d="M 715 464 L 716 465 L 717 470 L 719 473 L 719 477 L 720 478 L 722 489 L 723 490 L 724 496 L 725 497 L 725 500 L 727 504 L 727 507 L 729 512 L 729 516 L 730 517 L 730 521 L 732 526 L 732 531 L 729 534 L 726 535 L 719 540 L 714 542 L 712 544 L 705 547 L 703 549 L 697 552 L 695 552 L 693 554 L 685 558 L 683 558 L 676 562 L 674 562 L 667 566 L 663 567 L 661 565 L 662 564 L 662 562 L 683 519 L 685 517 L 688 510 L 690 508 L 697 494 L 702 487 L 708 474 L 711 470 L 712 466 Z"/>
<path d="M 602 232 L 602 234 L 603 235 L 603 233 Z"/>
<path d="M 567 228 L 567 229 L 568 229 L 568 228 Z"/>
<path d="M 588 223 L 588 224 L 589 224 L 589 223 Z"/>
<path d="M 583 220 L 581 220 L 579 222 L 579 223 L 580 223 L 581 224 L 580 225 L 575 225 L 574 226 L 573 226 L 572 227 L 571 227 L 576 227 L 576 226 L 577 225 L 581 225 L 581 224 L 580 223 Z"/>
<path d="M 585 215 L 585 217 L 586 217 L 587 218 L 589 218 L 589 217 L 588 216 L 586 216 Z"/>
<path d="M 584 210 L 584 212 L 585 211 L 586 212 L 587 212 L 588 213 L 588 211 L 587 210 Z"/>
<path d="M 586 206 L 586 207 L 587 207 Z"/>
<path d="M 703 198 L 656 199 L 632 201 L 630 203 L 623 202 L 621 204 L 617 203 L 615 205 L 610 204 L 607 211 L 597 212 L 600 216 L 598 219 L 596 218 L 593 219 L 592 223 L 595 223 L 597 221 L 601 225 L 603 230 L 608 231 L 609 229 L 611 230 L 610 231 L 612 232 L 607 233 L 605 239 L 612 251 L 615 252 L 615 256 L 623 268 L 625 274 L 628 276 L 628 279 L 633 283 L 647 285 L 648 284 L 640 272 L 632 256 L 627 251 L 628 250 L 627 248 L 624 246 L 625 245 L 624 242 L 621 239 L 622 241 L 621 242 L 617 241 L 618 238 L 620 237 L 618 233 L 613 230 L 615 229 L 611 228 L 612 225 L 609 227 L 607 225 L 607 222 L 609 221 L 611 223 L 609 221 L 615 219 L 616 217 L 622 218 L 623 216 L 630 217 L 667 213 L 702 213 L 706 211 L 708 208 L 708 202 Z"/>
<path d="M 628 276 L 629 275 L 630 276 L 629 277 Z"/>
<path d="M 626 253 L 627 252 L 629 252 L 630 253 L 630 254 L 629 255 L 628 255 Z"/>
<path d="M 624 248 L 625 247 L 626 248 L 625 249 Z"/>
<path d="M 615 233 L 616 232 L 617 232 L 618 233 L 617 234 L 616 234 Z"/>
<path d="M 614 232 L 615 231 L 616 232 L 615 233 Z"/>
<path d="M 612 206 L 613 205 L 615 205 L 616 206 L 615 207 L 613 207 Z"/>
<path d="M 752 169 L 751 170 L 746 170 L 745 171 L 743 171 L 742 172 L 741 172 L 739 174 L 738 174 L 736 176 L 735 176 L 734 177 L 734 178 L 730 182 L 730 183 L 726 190 L 726 193 L 725 194 L 725 205 L 726 206 L 726 209 L 727 210 L 727 212 L 728 213 L 729 216 L 731 218 L 731 219 L 735 223 L 738 224 L 740 226 L 741 226 L 742 227 L 745 227 L 746 228 L 751 228 L 752 229 L 757 229 L 758 228 L 761 228 L 762 227 L 764 227 L 765 226 L 770 224 L 772 222 L 773 222 L 779 215 L 779 214 L 780 213 L 780 211 L 781 210 L 781 208 L 782 207 L 782 192 L 781 191 L 781 189 L 779 187 L 779 186 L 778 185 L 776 180 L 771 175 L 770 175 L 767 172 L 764 172 L 762 170 L 756 170 L 755 169 Z"/>
</g>
<g fill="#81c860" stroke="none" fill-rule="evenodd">
<path d="M 357 587 L 357 590 L 358 591 L 358 592 L 359 591 L 359 590 L 358 589 L 358 587 Z"/>
<path d="M 355 584 L 354 585 L 355 585 Z"/>
<path d="M 322 444 L 322 445 L 324 447 L 325 447 L 325 446 L 323 444 Z"/>
<path d="M 376 435 L 376 436 L 377 436 L 378 437 L 378 440 L 378 436 L 377 435 Z"/>
<path d="M 370 420 L 370 421 L 372 421 L 372 420 Z"/>
<path d="M 364 420 L 364 421 L 365 421 L 365 420 Z"/>
<path d="M 388 419 L 387 420 L 388 421 L 387 422 L 388 422 L 388 421 L 389 420 Z"/>
<path d="M 364 413 L 364 414 L 365 414 L 366 415 L 366 414 L 365 413 Z"/>
<path d="M 139 413 L 138 414 L 135 414 L 134 415 L 129 417 L 122 423 L 122 424 L 120 426 L 120 427 L 117 432 L 117 434 L 116 435 L 116 438 L 115 439 L 115 449 L 116 450 L 116 453 L 118 456 L 118 458 L 120 460 L 121 463 L 127 469 L 128 469 L 133 472 L 135 472 L 136 473 L 139 473 L 140 474 L 149 474 L 150 473 L 153 473 L 154 472 L 156 472 L 157 471 L 160 470 L 163 467 L 164 467 L 169 462 L 170 459 L 173 455 L 173 452 L 174 451 L 174 445 L 175 444 L 175 442 L 174 441 L 174 435 L 173 434 L 173 432 L 172 431 L 171 428 L 169 426 L 169 425 L 162 418 L 161 418 L 159 416 L 158 416 L 155 414 L 152 414 L 151 413 Z"/>
<path d="M 361 410 L 357 410 L 356 411 L 353 411 L 351 413 L 350 413 L 349 414 L 347 414 L 344 416 L 341 416 L 340 417 L 338 417 L 336 419 L 334 419 L 331 421 L 328 421 L 326 423 L 325 423 L 322 425 L 321 424 L 320 425 L 319 425 L 318 426 L 317 426 L 317 429 L 318 430 L 318 433 L 318 432 L 319 431 L 320 431 L 321 430 L 322 431 L 322 432 L 321 433 L 320 433 L 320 434 L 319 435 L 319 436 L 320 435 L 321 436 L 321 437 L 322 437 L 323 438 L 324 438 L 325 437 L 324 436 L 324 432 L 325 431 L 325 428 L 326 427 L 327 427 L 328 428 L 329 428 L 330 427 L 335 427 L 336 428 L 337 428 L 337 427 L 339 425 L 343 425 L 344 426 L 345 426 L 347 424 L 348 424 L 349 423 L 350 423 L 351 424 L 354 424 L 355 423 L 357 423 L 358 422 L 357 421 L 357 420 L 358 419 L 359 419 L 360 420 L 360 422 L 361 422 L 361 418 L 359 416 L 359 413 L 360 412 L 361 412 Z"/>
<path d="M 417 387 L 416 386 L 415 387 Z"/>
<path d="M 313 365 L 313 367 L 312 368 L 312 375 L 311 376 L 311 397 L 312 398 L 312 400 L 313 401 L 313 402 L 312 403 L 312 407 L 314 409 L 314 410 L 313 411 L 313 413 L 314 414 L 314 417 L 315 418 L 316 417 L 318 417 L 321 414 L 324 414 L 325 413 L 327 413 L 328 412 L 330 412 L 331 411 L 333 411 L 338 408 L 341 408 L 342 407 L 343 407 L 344 406 L 345 406 L 346 405 L 349 404 L 352 401 L 353 401 L 354 402 L 354 398 L 353 397 L 353 396 L 354 395 L 354 393 L 353 392 L 353 388 L 354 387 L 354 385 L 353 384 L 353 382 L 352 381 L 349 381 L 348 380 L 346 380 L 343 378 L 341 378 L 340 377 L 339 377 L 338 376 L 337 376 L 332 373 L 330 373 L 329 372 L 328 372 L 326 370 L 324 370 L 322 368 L 320 368 L 318 366 L 317 366 L 316 365 Z"/>
<path d="M 461 333 L 460 334 L 459 333 L 454 337 L 451 338 L 445 343 L 443 344 L 440 344 L 439 346 L 434 348 L 434 349 L 431 351 L 429 354 L 423 355 L 421 358 L 417 359 L 413 363 L 407 366 L 404 369 L 400 370 L 397 373 L 401 379 L 403 380 L 402 382 L 404 382 L 405 380 L 407 381 L 407 385 L 408 386 L 408 391 L 409 393 L 404 397 L 403 396 L 403 393 L 403 396 L 405 399 L 406 398 L 409 400 L 412 400 L 413 399 L 413 397 L 414 396 L 409 393 L 409 392 L 412 390 L 411 388 L 412 387 L 412 384 L 413 383 L 418 383 L 421 381 L 422 383 L 424 383 L 426 381 L 428 381 L 426 377 L 430 372 L 429 369 L 430 368 L 435 367 L 436 366 L 435 364 L 436 360 L 437 359 L 438 360 L 440 360 L 440 358 L 439 357 L 442 354 L 442 352 L 443 351 L 445 351 L 446 352 L 446 349 L 445 349 L 444 347 L 445 346 L 447 347 L 450 347 L 452 346 L 452 344 L 448 342 L 451 340 L 455 343 L 457 343 L 458 342 L 457 335 L 458 334 L 459 335 L 461 334 Z"/>
<path d="M 424 381 L 425 380 L 426 381 L 425 382 Z"/>
<path d="M 423 380 L 424 379 L 425 380 L 424 381 Z"/>
<path d="M 422 372 L 423 371 L 424 371 L 425 372 L 424 373 L 423 373 Z"/>
<path d="M 482 326 L 481 326 L 481 328 L 482 327 Z"/>
<path d="M 476 323 L 475 324 L 474 323 L 473 324 L 472 324 L 471 325 L 470 325 L 470 326 L 468 328 L 464 328 L 464 330 L 465 331 L 469 331 L 469 330 L 470 329 L 470 328 L 473 325 L 474 325 L 475 324 L 476 324 Z"/>
<path d="M 469 313 L 465 310 L 462 310 L 460 307 L 452 303 L 447 302 L 438 297 L 435 297 L 432 295 L 424 295 L 421 293 L 412 293 L 410 295 L 408 299 L 408 302 L 406 305 L 405 310 L 402 313 L 402 317 L 400 320 L 400 322 L 398 325 L 398 327 L 395 332 L 394 338 L 393 339 L 393 341 L 391 345 L 391 349 L 389 353 L 389 356 L 387 359 L 386 366 L 388 366 L 390 368 L 395 366 L 405 358 L 409 357 L 412 354 L 413 354 L 414 352 L 417 351 L 421 347 L 425 346 L 429 342 L 433 341 L 436 337 L 439 336 L 442 333 L 444 333 L 452 326 L 456 324 L 457 322 L 461 320 L 463 320 L 464 318 L 469 314 Z"/>
<path d="M 402 294 L 401 293 L 392 293 L 391 294 L 386 294 L 382 296 L 378 296 L 377 297 L 375 297 L 373 299 L 369 299 L 368 300 L 366 300 L 364 302 L 356 306 L 354 306 L 348 312 L 344 314 L 338 320 L 337 320 L 331 327 L 331 328 L 327 331 L 326 335 L 322 339 L 319 345 L 318 351 L 315 357 L 320 360 L 322 360 L 324 362 L 326 362 L 331 365 L 334 365 L 339 368 L 342 368 L 348 372 L 350 372 L 354 374 L 358 374 L 366 367 L 368 367 L 371 365 L 375 365 L 376 363 L 377 364 L 379 361 L 379 358 L 381 355 L 381 352 L 383 349 L 383 345 L 386 339 L 386 336 L 387 335 L 388 329 L 390 326 L 390 323 L 392 320 L 392 318 L 394 315 L 395 310 L 398 305 L 398 302 Z"/>
<path d="M 627 253 L 628 254 L 629 254 L 629 253 Z"/>
<path d="M 249 239 L 245 262 L 254 349 L 204 388 L 184 409 L 183 417 L 192 421 L 232 384 L 257 368 L 280 446 L 262 520 L 234 503 L 193 465 L 187 465 L 183 475 L 257 539 L 245 636 L 247 647 L 255 648 L 271 548 L 346 582 L 353 574 L 354 581 L 357 576 L 365 577 L 355 565 L 358 561 L 348 537 L 294 443 L 269 359 L 295 344 L 310 322 L 266 338 L 259 245 Z"/>
<path d="M 357 571 L 358 570 L 359 570 L 360 571 L 360 572 L 359 573 L 358 573 L 357 572 Z"/>
<path d="M 353 567 L 354 566 L 355 566 L 356 567 L 356 568 L 355 569 Z"/>
<path d="M 353 565 L 354 564 L 355 565 L 354 566 Z"/>
<path d="M 290 466 L 293 468 L 294 472 L 299 479 L 299 481 L 303 485 L 307 493 L 310 496 L 310 498 L 312 500 L 313 503 L 316 505 L 317 509 L 325 521 L 336 544 L 338 546 L 338 549 L 341 553 L 342 557 L 345 561 L 345 563 L 346 564 L 346 566 L 345 567 L 340 566 L 326 559 L 324 559 L 319 556 L 317 556 L 315 554 L 309 551 L 302 549 L 297 545 L 293 544 L 289 541 L 285 540 L 282 537 L 278 535 L 276 535 L 273 532 L 274 526 L 275 525 L 275 522 L 276 521 L 277 513 L 279 509 L 279 505 L 281 502 L 281 499 L 283 495 L 283 492 L 284 491 L 284 488 L 285 487 L 285 484 L 287 479 L 287 475 L 288 474 L 289 467 Z"/>
<path d="M 619 238 L 619 239 L 618 240 L 618 241 L 621 241 L 620 240 L 620 238 Z"/>
<path d="M 615 232 L 616 233 L 617 233 L 616 233 Z"/>
<path d="M 612 227 L 612 228 L 614 228 L 613 227 Z"/>
<path d="M 596 222 L 596 223 L 598 225 L 598 226 L 599 227 L 599 228 L 600 229 L 600 230 L 601 231 L 602 231 L 604 233 L 604 236 L 605 236 L 605 235 L 606 234 L 606 233 L 607 232 L 611 232 L 610 232 L 609 231 L 610 230 L 609 230 L 609 231 L 608 232 L 606 232 L 605 231 L 603 231 L 601 229 L 602 228 L 600 226 L 600 225 L 597 222 Z"/>
<path d="M 610 221 L 609 222 L 608 222 L 608 225 L 609 226 L 610 225 L 611 225 L 611 224 L 609 222 Z"/>
<path d="M 243 169 L 242 170 L 239 170 L 238 171 L 236 171 L 235 172 L 234 172 L 232 174 L 231 174 L 224 181 L 224 182 L 222 184 L 222 185 L 221 186 L 221 188 L 220 189 L 220 191 L 219 192 L 219 206 L 220 207 L 220 210 L 221 211 L 223 216 L 225 218 L 225 219 L 229 223 L 230 223 L 232 225 L 233 225 L 236 227 L 238 227 L 239 228 L 242 228 L 243 229 L 252 229 L 253 228 L 256 228 L 257 227 L 259 227 L 260 226 L 263 225 L 266 222 L 267 222 L 268 221 L 268 220 L 272 216 L 272 215 L 275 210 L 275 208 L 276 207 L 276 202 L 277 201 L 277 198 L 276 197 L 276 192 L 275 191 L 275 189 L 274 188 L 272 183 L 270 181 L 270 180 L 264 174 L 263 174 L 256 170 L 253 170 L 252 169 Z"/>
<path d="M 609 205 L 598 203 L 570 161 L 536 125 L 528 128 L 529 139 L 572 185 L 588 207 L 588 214 L 575 212 L 498 235 L 421 210 L 441 178 L 479 137 L 474 125 L 443 152 L 402 205 L 346 198 L 302 198 L 298 202 L 304 213 L 353 214 L 393 221 L 357 285 L 376 280 L 410 223 L 480 244 L 427 280 L 450 283 L 502 252 L 554 284 L 562 281 L 561 275 L 572 280 L 522 244 L 598 218 L 598 210 L 607 210 Z"/>
<path d="M 583 219 L 584 220 L 580 224 L 579 224 L 578 223 L 578 222 L 581 219 Z"/>
<path d="M 584 215 L 585 214 L 586 215 L 588 215 L 590 217 L 590 218 L 589 219 L 587 219 L 586 218 L 585 218 L 584 217 Z"/>
<path d="M 578 215 L 579 214 L 580 215 L 579 216 Z"/>
<path d="M 591 211 L 592 210 L 593 211 L 592 212 Z"/>
<path d="M 495 58 L 494 59 L 487 62 L 479 70 L 479 71 L 476 76 L 476 78 L 475 79 L 475 82 L 474 83 L 474 95 L 475 96 L 475 99 L 476 100 L 477 105 L 479 107 L 480 110 L 486 116 L 487 116 L 489 118 L 490 118 L 493 120 L 495 120 L 496 121 L 500 121 L 501 122 L 507 122 L 508 121 L 513 121 L 514 120 L 516 120 L 517 119 L 522 117 L 530 109 L 530 108 L 533 103 L 533 101 L 534 100 L 534 97 L 535 96 L 535 82 L 534 81 L 533 76 L 532 75 L 530 70 L 522 62 L 521 62 L 514 58 L 510 58 L 509 57 L 499 57 L 498 58 Z"/>
</g>
</svg>